<?xml version="1.0" encoding="UTF-8"?>
<!DOCTYPE svg PUBLIC "-//W3C//DTD SVG 1.1//EN" "http://www.w3.org/Graphics/SVG/1.1/DTD/svg11.dtd">
<!-- Creator: CorelDRAW -->
<svg xmlns="http://www.w3.org/2000/svg" xml:space="preserve" width="148.782mm" height="71.2836mm" version="1.1" style="shape-rendering:geometricPrecision; text-rendering:geometricPrecision; image-rendering:optimizeQuality; fill-rule:evenodd; clip-rule:evenodd"
viewBox="0 0 1647.77 789.47"
 xmlns:xlink="http://www.w3.org/1999/xlink"
 xmlns:xodm="http://www.corel.com/coreldraw/odm/2003">
 <defs>
  <style type="text/css">
   <![CDATA[
    .fil0 {fill:black;fill-rule:nonzero}
    .fil1 {fill:#9D9181;fill-rule:nonzero}
   ]]>
  </style>
 </defs>
 <g id="Camada_x0020_1">
  <metadata id="CorelCorpID_0Corel-Layer"/>
  <g id="_2494088558400">
   <polygon class="fil0" points="147.61,535.75 -0,199.16 59.14,199.16 192.81,506.41 159.15,506.41 294.27,199.16 348.6,199.16 201.47,535.75 "/>
   <path id="_1" class="fil0" d="M445.38 535.75l-0.48 -336.58 240.9 0 0.48 47.12 -187.04 0 0 242.34 193.29 0 0.48 47.12 -247.63 0zm49.53 -148.1l0 -46.16 170.21 0.48 0.48 46.16 -170.69 -0.48z"/>
   <polygon class="fil0" points="1205.75,535.75 1205.75,199.16 1260.09,199.16 1260.09,535.75 "/>
   <path id="_1_2" class="fil0" d="M1514.58 540.07c-25.96,0 -50.81,-3.85 -74.53,-11.54 -23.72,-7.69 -42.47,-17.63 -56.26,-29.81l19.71 -42.79c13.14,10.9 29.65,19.96 49.53,27.17 19.88,7.21 40.39,10.82 61.55,10.82 18.59,0 33.66,-2.08 45.2,-6.25 11.54,-4.17 20.03,-9.94 25.48,-17.31 5.45,-7.37 8.17,-15.55 8.17,-24.52 0,-10.9 -3.69,-19.63 -11.06,-26.21 -7.37,-6.57 -16.99,-11.86 -28.85,-15.87 -11.86,-4.01 -25,-7.61 -39.43,-10.82 -14.42,-3.21 -28.85,-6.97 -43.27,-11.3 -14.43,-4.33 -27.57,-9.94 -39.43,-16.83 -11.86,-6.89 -21.48,-16.03 -28.85,-27.41 -7.37,-11.38 -11.06,-26.05 -11.06,-44 0,-17.95 4.73,-34.38 14.18,-49.29 9.46,-14.9 23.96,-26.85 43.52,-35.82 19.55,-8.98 44.4,-13.46 74.53,-13.46 19.87,0 39.59,2.56 59.14,7.69 19.55,5.13 36.54,12.5 50.97,22.12l-17.79 43.27c-14.75,-9.3 -30.13,-16.11 -46.16,-20.44 -16.03,-4.33 -31.57,-6.49 -46.64,-6.49 -17.95,0 -32.78,2.24 -44.48,6.73 -11.7,4.49 -20.2,10.5 -25.48,18.03 -5.29,7.53 -7.93,15.95 -7.93,25.24 0,10.9 3.69,19.63 11.06,26.2 7.37,6.57 16.99,11.78 28.85,15.63 11.86,3.85 25,7.45 39.43,10.82 14.42,3.37 28.85,7.13 43.27,11.3 14.42,4.17 27.65,9.62 39.67,16.35 12.02,6.73 21.72,15.79 29.09,27.17 7.37,11.38 11.06,25.89 11.06,43.52 0,17.63 -4.81,33.9 -14.43,48.8 -9.62,14.91 -24.28,26.85 -44,35.82 -19.71,8.98 -44.64,13.46 -74.77,13.46z"/>
   <g transform="matrix(0.992416 0 0 1 -7045.19 -393.075)">
    <path class="fil0" d="M381.05 789.03c-9.98,0 -17.82,-2.88 -23.55,-8.65 -5.72,-5.77 -8.58,-14.27 -8.58,-25.5l0 -44.23 9.35 0 0 43.9c0,8.94 1.98,15.52 5.94,19.73 3.96,4.21 9.57,6.32 16.83,6.32 7.26,0 12.87,-2.11 16.83,-6.32 3.96,-4.21 5.94,-10.79 5.94,-19.73l0 -43.9 9.24 0 0 44.23c0,11.23 -2.84,19.73 -8.53,25.5 -5.68,5.76 -13.51,8.65 -23.49,8.65z"/>
    <path id="_1_3" class="fil0" d="M437.43 788.25l0 -58.43 8.69 0 0 15.85 -1.54 -3.44c1.91,-4.14 4.86,-7.34 8.86,-9.59 4,-2.25 8.71,-3.38 14.14,-3.38 4.77,0 8.93,0.91 12.49,2.72 3.56,1.81 6.36,4.58 8.42,8.32 2.05,3.73 3.08,8.44 3.08,14.14l0 33.81 -9.02 0 0 -32.82c0,-5.99 -1.47,-10.5 -4.4,-13.53 -2.93,-3.03 -7.04,-4.55 -12.32,-4.55 -3.89,0 -7.3,0.81 -10.23,2.44 -2.93,1.63 -5.19,3.94 -6.77,6.93 -1.58,2.99 -2.36,6.67 -2.36,11.03l0 30.49 -9.02 0z"/>
    <path id="_2" class="fil0" d="M514.4 788.25l0 -58.43 9.02 0 0 58.43 -9.02 0zm4.51 -70.62c-1.83,0 -3.36,-0.61 -4.57,-1.83 -1.21,-1.22 -1.82,-2.68 -1.82,-4.38 0,-1.7 0.61,-3.16 1.82,-4.38 1.21,-1.22 2.73,-1.83 4.57,-1.83 1.83,0 3.36,0.57 4.57,1.72 1.21,1.15 1.82,2.6 1.82,4.38 0,1.77 -0.59,3.27 -1.76,4.49 -1.17,1.22 -2.71,1.83 -4.62,1.83z"/>
    <path id="_3" class="fil0" d="M562.97 788.81c-4.84,0 -9.42,-0.67 -13.75,-2 -4.33,-1.33 -7.7,-2.99 -10.12,-4.99l3.96 -7.32c2.42,1.85 5.46,3.38 9.13,4.6 3.67,1.22 7.45,1.83 11.33,1.83 5.21,0 8.99,-0.79 11.33,-2.38 2.35,-1.59 3.52,-3.75 3.52,-6.49 0,-2 -0.68,-3.55 -2.04,-4.66 -1.36,-1.11 -3.14,-1.96 -5.34,-2.55 -2.2,-0.59 -4.64,-1.11 -7.32,-1.55 -2.68,-0.44 -5.34,-0.96 -7.98,-1.55 -2.64,-0.59 -5.06,-1.46 -7.26,-2.61 -2.2,-1.15 -3.98,-2.73 -5.34,-4.77 -1.36,-2.03 -2.03,-4.71 -2.03,-8.04 0,-3.33 0.93,-6.28 2.8,-8.87 1.87,-2.59 4.57,-4.6 8.09,-6.04 3.52,-1.44 7.74,-2.16 12.65,-2.16 3.81,0 7.63,0.48 11.44,1.44 3.81,0.96 6.93,2.25 9.35,3.88l-3.85 7.32c-2.64,-1.77 -5.41,-3.01 -8.31,-3.71 -2.9,-0.7 -5.78,-1.05 -8.64,-1.05 -4.91,0 -8.56,0.83 -10.95,2.49 -2.38,1.66 -3.58,3.79 -3.58,6.37 0,2.14 0.68,3.79 2.04,4.93 1.36,1.15 3.14,2.05 5.34,2.72 2.2,0.67 4.62,1.2 7.26,1.61 2.64,0.41 5.3,0.92 7.98,1.55 2.68,0.63 5.12,1.5 7.32,2.61 2.2,1.11 3.96,2.64 5.28,4.6 1.32,1.96 1.98,4.56 1.98,7.82 0,3.47 -0.97,6.49 -2.92,9.04 -1.94,2.55 -4.73,4.51 -8.36,5.88 -3.63,1.37 -7.98,2.05 -13.04,2.05z"/>
    <path id="_4" class="fil0" d="M619.69 788.81c-4.84,0 -9.42,-0.67 -13.75,-2 -4.33,-1.33 -7.7,-2.99 -10.12,-4.99l3.96 -7.32c2.42,1.85 5.46,3.38 9.13,4.6 3.67,1.22 7.44,1.83 11.33,1.83 5.21,0 8.99,-0.79 11.33,-2.38 2.35,-1.59 3.52,-3.75 3.52,-6.49 0,-2 -0.68,-3.55 -2.04,-4.66 -1.36,-1.11 -3.14,-1.96 -5.34,-2.55 -2.2,-0.59 -4.64,-1.11 -7.32,-1.55 -2.68,-0.44 -5.34,-0.96 -7.98,-1.55 -2.64,-0.59 -5.06,-1.46 -7.26,-2.61 -2.2,-1.15 -3.98,-2.73 -5.34,-4.77 -1.36,-2.03 -2.03,-4.71 -2.03,-8.04 0,-3.33 0.93,-6.28 2.81,-8.87 1.87,-2.59 4.57,-4.6 8.09,-6.04 3.52,-1.44 7.74,-2.16 12.65,-2.16 3.81,0 7.63,0.48 11.44,1.44 3.81,0.96 6.93,2.25 9.35,3.88l-3.85 7.32c-2.64,-1.77 -5.41,-3.01 -8.31,-3.71 -2.9,-0.7 -5.78,-1.05 -8.64,-1.05 -4.91,0 -8.56,0.83 -10.95,2.49 -2.38,1.66 -3.58,3.79 -3.58,6.37 0,2.14 0.68,3.79 2.04,4.93 1.36,1.15 3.14,2.05 5.34,2.72 2.2,0.67 4.62,1.2 7.26,1.61 2.64,0.41 5.3,0.92 7.98,1.55 2.68,0.63 5.12,1.5 7.32,2.61 2.2,1.11 3.96,2.64 5.28,4.6 1.32,1.96 1.98,4.56 1.98,7.82 0,3.47 -0.97,6.49 -2.92,9.04 -1.94,2.55 -4.73,4.51 -8.36,5.88 -3.63,1.37 -7.98,2.05 -13.04,2.05z"/>
    <path id="_5" class="fil0" d="M685.42 788.81c-6.09,0 -11.44,-1.28 -16.06,-3.83 -4.62,-2.55 -8.24,-6.08 -10.84,-10.59 -2.6,-4.51 -3.91,-9.65 -3.91,-15.41 0,-5.76 1.25,-10.88 3.74,-15.35 2.49,-4.47 5.92,-7.98 10.29,-10.53 4.36,-2.55 9.26,-3.83 14.69,-3.83 5.5,0 10.4,1.24 14.69,3.71 4.29,2.48 7.67,5.97 10.12,10.48 2.46,4.51 3.68,9.72 3.68,15.63 0,0.44 -0.02,0.91 -0.05,1.39 -0.04,0.48 -0.09,0.98 -0.17,1.5l-49.95 0 0 -6.76 45.22 0 -3.63 2.55c0,-4.06 -0.86,-7.65 -2.58,-10.75 -1.73,-3.1 -4.07,-5.54 -7.04,-7.32 -2.97,-1.77 -6.4,-2.66 -10.29,-2.66 -3.81,0 -7.23,0.89 -10.23,2.66 -3.01,1.77 -5.35,4.23 -7.04,7.37 -1.69,3.14 -2.53,6.78 -2.53,10.92l0 1.44c0,4.21 0.93,7.93 2.81,11.14 1.87,3.22 4.48,5.73 7.81,7.54 3.34,1.81 7.21,2.72 11.61,2.72 3.45,0 6.66,-0.61 9.63,-1.83 2.97,-1.22 5.52,-3.09 7.65,-5.6l5.06 5.88c-2.64,3.1 -5.89,5.47 -9.74,7.1 -3.85,1.63 -8.16,2.44 -12.93,2.44z"/>
    <polygon id="_6" class="fil0" points="719.25,788.25 744.01,755.88 743.9,760.54 720.36,729.83 730.48,729.83 749.18,754.44 745.33,754.33 763.93,729.83 773.94,729.83 750.17,760.76 750.28,755.88 775.26,788.25 764.92,788.25 745.11,762.09 748.85,762.53 729.38,788.25 "/>
    <path id="_7" class="fil0" d="M876.32 789.47l-42.8 -43.68c-2.57,-2.66 -4.6,-5.03 -6.11,-7.1 -1.5,-2.07 -2.57,-4.03 -3.19,-5.88 -0.62,-1.85 -0.94,-3.81 -0.94,-5.88 0,-3.4 0.83,-6.37 2.48,-8.93 1.65,-2.55 4,-4.53 7.04,-5.93 3.04,-1.4 6.58,-2.11 10.62,-2.11 3.74,0 6.99,0.63 9.74,1.88 2.75,1.26 4.9,3.07 6.44,5.43 1.54,2.36 2.31,5.21 2.31,8.54 0,2.88 -0.7,5.54 -2.09,7.98 -1.39,2.44 -3.65,4.84 -6.77,7.21 -3.12,2.37 -7.32,4.95 -12.6,7.76 -4.55,2.44 -8.12,4.69 -10.73,6.76 -2.6,2.07 -4.44,4.1 -5.5,6.1 -1.06,2 -1.6,4.18 -1.6,6.54 0,2.59 0.75,4.88 2.26,6.87 1.5,1.99 3.61,3.55 6.33,4.66 2.71,1.11 5.87,1.66 9.46,1.66 4.99,0 9.48,-1.07 13.48,-3.22 4,-2.14 7.35,-5.38 10.07,-9.7 2.71,-4.32 4.69,-9.74 5.94,-16.24l7.37 2.44c-1.47,7.39 -3.93,13.64 -7.37,18.74 -3.45,5.1 -7.72,8.98 -12.82,11.64 -5.1,2.66 -10.84,3.99 -17.22,3.99 -5.06,0 -9.59,-0.85 -13.59,-2.55 -4,-1.7 -7.13,-4.03 -9.41,-6.98 -2.27,-2.96 -3.41,-6.43 -3.41,-10.42 0,-3.4 0.75,-6.5 2.26,-9.31 1.5,-2.81 3.91,-5.56 7.21,-8.26 3.3,-2.7 7.7,-5.52 13.2,-8.48 4.55,-2.44 8.1,-4.58 10.67,-6.43 2.57,-1.85 4.38,-3.6 5.45,-5.27 1.06,-1.66 1.59,-3.46 1.59,-5.38 0,-2.73 -0.92,-4.93 -2.75,-6.6 -1.84,-1.66 -4.47,-2.5 -7.92,-2.5 -3.74,0 -6.62,0.92 -8.64,2.77 -2.02,1.85 -3.03,4.25 -3.03,7.21 0,1.48 0.24,2.88 0.72,4.21 0.48,1.33 1.38,2.83 2.69,4.49 1.32,1.66 3.16,3.75 5.5,6.26l40.82 41.57 -5.17 6.1z"/>
    <path id="_8" class="fil0" d="M926.76 788.25l-0.11 -77.61 53.47 0 0 8.31 -44.12 -0.11 0 61.09 45.66 0.11 0.11 8.2 -55.01 0zm8.36 -35.37l0.11 -8.09 40.05 0 0.11 8.09 -40.27 0z"/>
    <path id="_9" class="fil0" d="M1016.37 788.81c-4.84,0 -9.42,-0.67 -13.75,-2 -4.33,-1.33 -7.7,-2.99 -10.12,-4.99l3.96 -7.32c2.42,1.85 5.47,3.38 9.13,4.6 3.67,1.22 7.45,1.83 11.33,1.83 5.21,0 8.99,-0.79 11.33,-2.38 2.35,-1.59 3.52,-3.75 3.52,-6.49 0,-2 -0.68,-3.55 -2.04,-4.66 -1.36,-1.11 -3.14,-1.96 -5.34,-2.55 -2.2,-0.59 -4.64,-1.11 -7.32,-1.55 -2.68,-0.44 -5.34,-0.96 -7.98,-1.55 -2.64,-0.59 -5.06,-1.46 -7.26,-2.61 -2.2,-1.15 -3.98,-2.73 -5.34,-4.77 -1.36,-2.03 -2.03,-4.71 -2.03,-8.04 0,-3.33 0.93,-6.28 2.81,-8.87 1.87,-2.59 4.57,-4.6 8.09,-6.04 3.52,-1.44 7.74,-2.16 12.65,-2.16 3.81,0 7.63,0.48 11.44,1.44 3.81,0.96 6.93,2.25 9.35,3.88l-3.85 7.32c-2.64,-1.77 -5.41,-3.01 -8.31,-3.71 -2.9,-0.7 -5.78,-1.05 -8.64,-1.05 -4.91,0 -8.56,0.83 -10.95,2.49 -2.38,1.66 -3.58,3.79 -3.58,6.37 0,2.14 0.68,3.79 2.04,4.93 1.36,1.15 3.14,2.05 5.34,2.72 2.2,0.67 4.62,1.2 7.26,1.61 2.64,0.41 5.3,0.92 7.98,1.55 2.68,0.63 5.12,1.5 7.32,2.61 2.2,1.11 3.96,2.64 5.28,4.6 1.32,1.96 1.98,4.56 1.98,7.82 0,3.47 -0.97,6.49 -2.92,9.04 -1.94,2.55 -4.73,4.51 -8.36,5.88 -3.63,1.37 -7.98,2.05 -13.04,2.05z"/>
    <path id="_10" class="fil0" d="M1073.09 788.81c-4.84,0 -9.42,-0.67 -13.75,-2 -4.33,-1.33 -7.7,-2.99 -10.12,-4.99l3.96 -7.32c2.42,1.85 5.46,3.38 9.13,4.6 3.67,1.22 7.45,1.83 11.33,1.83 5.21,0 8.99,-0.79 11.33,-2.38 2.35,-1.59 3.52,-3.75 3.52,-6.49 0,-2 -0.68,-3.55 -2.04,-4.66 -1.36,-1.11 -3.14,-1.96 -5.34,-2.55 -2.2,-0.59 -4.64,-1.11 -7.32,-1.55 -2.68,-0.44 -5.34,-0.96 -7.98,-1.55 -2.64,-0.59 -5.06,-1.46 -7.26,-2.61 -2.2,-1.15 -3.98,-2.73 -5.34,-4.77 -1.36,-2.03 -2.03,-4.71 -2.03,-8.04 0,-3.33 0.93,-6.28 2.8,-8.87 1.87,-2.59 4.57,-4.6 8.09,-6.04 3.52,-1.44 7.74,-2.16 12.65,-2.16 3.81,0 7.63,0.48 11.44,1.44 3.81,0.96 6.93,2.25 9.35,3.88l-3.85 7.32c-2.64,-1.77 -5.41,-3.01 -8.31,-3.71 -2.9,-0.7 -5.78,-1.05 -8.64,-1.05 -4.91,0 -8.56,0.83 -10.95,2.49 -2.38,1.66 -3.58,3.79 -3.58,6.37 0,2.14 0.68,3.79 2.04,4.93 1.36,1.15 3.14,2.05 5.34,2.72 2.2,0.67 4.62,1.2 7.26,1.61 2.64,0.41 5.3,0.92 7.98,1.55 2.68,0.63 5.12,1.5 7.32,2.61 2.2,1.11 3.96,2.64 5.28,4.6 1.32,1.96 1.98,4.56 1.98,7.82 0,3.47 -0.97,6.49 -2.92,9.04 -1.94,2.55 -4.73,4.51 -8.36,5.88 -3.63,1.37 -7.98,2.05 -13.04,2.05z"/>
    <path id="_11" class="fil0" d="M1138.83 788.81c-6.09,0 -11.44,-1.28 -16.06,-3.83 -4.62,-2.55 -8.23,-6.08 -10.84,-10.59 -2.6,-4.51 -3.91,-9.65 -3.91,-15.41 0,-5.76 1.25,-10.88 3.74,-15.35 2.49,-4.47 5.92,-7.98 10.29,-10.53 4.36,-2.55 9.26,-3.83 14.69,-3.83 5.5,0 10.4,1.24 14.69,3.71 4.29,2.48 7.67,5.97 10.12,10.48 2.46,4.51 3.69,9.72 3.69,15.63 0,0.44 -0.02,0.91 -0.06,1.39 -0.04,0.48 -0.09,0.98 -0.17,1.5l-49.95 0 0 -6.76 45.22 0 -3.63 2.55c0,-4.06 -0.86,-7.65 -2.58,-10.75 -1.72,-3.1 -4.07,-5.54 -7.04,-7.32 -2.97,-1.77 -6.4,-2.66 -10.29,-2.66 -3.81,0 -7.23,0.89 -10.23,2.66 -3.01,1.77 -5.35,4.23 -7.04,7.37 -1.69,3.14 -2.53,6.78 -2.53,10.92l0 1.44c0,4.21 0.94,7.93 2.81,11.14 1.87,3.22 4.47,5.73 7.81,7.54 3.34,1.81 7.21,2.72 11.61,2.72 3.45,0 6.66,-0.61 9.63,-1.83 2.97,-1.22 5.52,-3.09 7.65,-5.6l5.06 5.88c-2.64,3.1 -5.89,5.47 -9.74,7.1 -3.85,1.63 -8.16,2.44 -12.93,2.44z"/>
    <path id="_12" class="fil0" d="M1183 788.25l0 -58.43 8.69 0 0 15.85 -1.54 -3.44c1.91,-4.14 4.86,-7.34 8.86,-9.59 4,-2.25 8.71,-3.38 14.14,-3.38 4.77,0 8.93,0.91 12.49,2.72 3.56,1.81 6.36,4.58 8.42,8.32 2.05,3.73 3.08,8.44 3.08,14.14l0 33.81 -9.02 0 0 -32.82c0,-5.99 -1.47,-10.5 -4.4,-13.53 -2.93,-3.03 -7.04,-4.55 -12.32,-4.55 -3.89,0 -7.3,0.81 -10.23,2.44 -2.93,1.63 -5.19,3.94 -6.77,6.93 -1.58,2.99 -2.37,6.67 -2.37,11.03l0 30.49 -9.02 0z"/>
    <path id="_13" class="fil0" d="M1279 788.81c-5.65,0 -10.01,-1.52 -13.09,-4.55 -3.08,-3.03 -4.62,-7.39 -4.62,-13.08l0 -54.21 9.13 0 0 53.88c0,3.25 0.83,5.76 2.48,7.54 1.65,1.77 4.02,2.66 7.1,2.66 3.37,0 6.16,-0.92 8.36,-2.77l3.08 6.54c-1.54,1.33 -3.43,2.33 -5.67,2.99 -2.24,0.66 -4.49,1 -6.77,1zm-27.84 -51.44l0 -7.54 36.42 0 0 7.54 -36.42 0z"/>
    <path id="_14" class="fil0" d="M1307.44 788.25l0 -58.43 9.02 0 0 58.43 -9.02 0zm4.51 -70.62c-1.83,0 -3.35,-0.61 -4.57,-1.83 -1.21,-1.22 -1.82,-2.68 -1.82,-4.38 0,-1.7 0.61,-3.16 1.82,-4.38 1.21,-1.22 2.73,-1.83 4.57,-1.83 1.84,0 3.36,0.57 4.57,1.72 1.21,1.15 1.81,2.6 1.81,4.38 0,1.77 -0.59,3.27 -1.76,4.49 -1.17,1.22 -2.71,1.83 -4.62,1.83z"/>
    <path id="_15" class="fil0" d="M1376.04 788.25l0 -12.64 -0.33 -2.22 0 -21.4c0,-4.73 -1.36,-8.39 -4.07,-10.98 -2.71,-2.59 -6.71,-3.88 -11.99,-3.88 -3.67,0 -7.15,0.61 -10.45,1.83 -3.3,1.22 -6.12,2.83 -8.47,4.82l-3.96 -6.76c3.01,-2.51 6.58,-4.43 10.73,-5.76 4.15,-1.33 8.49,-2 13.04,-2 7.78,0 13.75,1.9 17.93,5.71 4.18,3.81 6.27,9.63 6.27,17.46l0 35.81 -8.69 0zm-19.47 0.55c-4.4,0 -8.2,-0.72 -11.39,-2.16 -3.19,-1.44 -5.65,-3.45 -7.37,-6.04 -1.72,-2.59 -2.58,-5.54 -2.58,-8.87 0,-3.1 0.71,-5.91 2.15,-8.43 1.43,-2.51 3.81,-4.55 7.15,-6.1 3.34,-1.55 7.83,-2.33 13.48,-2.33l19.26 0 0 6.76 -18.93 0c-5.43,0 -9.15,0.94 -11.17,2.83 -2.02,1.88 -3.03,4.2 -3.03,6.93 0,3.18 1.23,5.69 3.69,7.54 2.46,1.85 5.85,2.77 10.18,2.77 4.18,0 7.81,-0.96 10.89,-2.88 3.08,-1.92 5.35,-4.69 6.82,-8.32l1.87 6.32c-1.47,3.7 -3.98,6.62 -7.54,8.76 -3.56,2.14 -8.05,3.22 -13.48,3.22z"/>
    <polygon id="_16" class="fil0" points="1407.56,788.25 1407.56,705.99 1416.58,705.99 1416.58,788.25 "/>
   </g>
   <g>
    <path class="fil0" d="M968.83 351.69l134.01 184.25 -66.75 0 -89.19 -123.47c-66.64,83.48 -140.28,172.68 -221,266.43l242.93 -327.21z"/>
    <path class="fil1" d="M1198.64 0l-281.47 373.79 -125.53 -174.47 65.73 0 81.46 112.02c99.49,-125.9 188.35,-229.21 259.81,-311.33z"/>
   </g>
  </g>
 </g>
</svg>
